<?xml version="1.0" encoding="UTF-8" standalone="no"?>
<!-- Created with Inkscape (http://www.inkscape.org/) -->

<svg
   xmlns:dc="http://purl.org/dc/elements/1.1/"
   xmlns:cc="http://creativecommons.org/ns#"
   xmlns:rdf="http://www.w3.org/1999/02/22-rdf-syntax-ns#"
   xmlns:svg="http://www.w3.org/2000/svg"
   xmlns="http://www.w3.org/2000/svg"
   xmlns:sodipodi="http://sodipodi.sourceforge.net/DTD/sodipodi-0.dtd"
   xmlns:inkscape="http://www.inkscape.org/namespaces/inkscape"
   width="169.33333mm"
   height="60.144196mm"
   viewBox="0 0 599.99998 213.10935"
   id="svg2"
   version="1.1"
   inkscape:version="0.91 r13725"
   sodipodi:docname="logo-dita.svg">
  <defs
     id="defs4" />
  <sodipodi:namedview
     id="base"
     pagecolor="#ffffff"
     bordercolor="#666666"
     borderopacity="1.0"
     inkscape:pageopacity="0.0"
     inkscape:pageshadow="2"
     inkscape:zoom="0.7"
     inkscape:cx="291.87496"
     inkscape:cy="212.45158"
     inkscape:document-units="px"
     inkscape:current-layer="layer3"
     showgrid="false"
     fit-margin-top="0"
     fit-margin-left="0"
     fit-margin-right="0"
     fit-margin-bottom="0"
     inkscape:window-width="1920"
     inkscape:window-height="1028"
     inkscape:window-x="0"
     inkscape:window-y="0"
     inkscape:window-maximized="1" />
  <metadata
     id="metadata7">
    <rdf:RDF>
      <cc:Work
         rdf:about="">
        <dc:format>image/svg+xml</dc:format>
        <dc:type
           rdf:resource="http://purl.org/dc/dcmitype/StillImage" />
        <dc:title></dc:title>
      </cc:Work>
    </rdf:RDF>
  </metadata>
  <g
     inkscape:groupmode="layer"
     id="layer3"
     inkscape:label="&lt;dita&gt;"
     style="display:inline"
     transform="translate(971.57112,-555.71797)">
    <path
       style="display:inline;fill:#020202"
       d="m -827.39647,768.72791 c -3.0753,-0.3278 -9.02096,-1.45995 -9.82516,-1.87087 -0.49701,-0.25395 -1.42358,-0.57234 -2.05906,-0.70752 -1.80347,-0.38364 -6.84348,-3.12139 -9.20311,-4.99916 -7.63264,-6.07399 -11.53415,-13.49409 -12.61056,-23.98344 -0.7919,-7.7169 1.68964,-17.57695 6.02147,-23.92545 2.42301,-3.55102 7.56465,-8.56686 10.80344,-10.53911 6.21183,-3.78265 12.15203,-5.37835 20.02794,-5.38005 7.3518,-0.002 12.51739,1.15542 19.25504,4.31279 3.10514,1.45512 4.35303,1.60477 5.31983,0.63797 0.62438,-0.62438 0.66024,-1.10039 0.66024,-8.7645 0,-8.80006 -0.13189,-9.55506 -1.80214,-10.31607 -0.47372,-0.21584 -2.22431,-0.54684 -3.8902,-0.73556 -5.08699,-0.57626 -5.77035,-0.89239 -6.87886,-3.18226 -1.49735,-3.09312 -0.16685,-7.76381 2.53296,-8.89186 2.48662,-1.03897 21.9219,-1.35473 23.16039,-0.37627 0.32602,0.25757 0.41265,8.65879 0.41265,40.02017 0,39.68822 10e-5,39.69431 0.68583,40.56607 0.98301,1.2497 1.50743,1.45376 4.7814,1.8606 3.9482,0.49063 5.78169,1.48428 6.90752,3.74352 1.04071,2.08844 1.05399,3.85302 0.0451,5.99241 -1.48652,3.15223 -2.76967,3.79578 -7.57212,3.79769 -1.84922,6.6e-4 -5.42565,0.1575 -7.94762,0.34836 -5.54976,0.42 -8.3187,0.0816 -10.98818,-1.34292 -2.13824,-1.14103 -3.56053,-1.09053 -6.04646,0.21465 -0.81559,0.42821 -1.74245,0.77857 -2.05969,0.77857 -0.31723,0 -1.35828,0.29989 -2.31344,0.66643 -3.60099,1.38184 -13.19758,2.52558 -17.41722,2.07581 z m 9.94762,-14.25162 c 5.47696,-1.19687 9.29257,-3.16826 12.73701,-6.58077 10.48386,-10.38665 6.04692,-27.91367 -8.88544,-35.09973 -7.70011,-3.70561 -15.61441,-3.08094 -23.36266,1.84398 -5.51717,3.50683 -10.07024,10.6818 -10.94428,17.24659 -1.67979,12.61658 9.1418,22.99465 24.15576,23.16575 2.30748,0.0263 4.43355,-0.16804 6.29961,-0.57582 z m 240.61127,14.13901 c -5.72437,-0.73387 -10.21455,-2.12608 -13.03963,-4.04305 -0.72626,-0.4928 -1.84915,-1.25189 -2.49532,-1.68687 -1.13237,-0.76227 -3.56111,-3.40929 -5.33357,-5.81287 -1.27709,-1.73183 -2.5698,-6.20367 -2.5698,-8.8896 0,-3.3494 1.48371,-7.85445 3.62736,-11.0139 4.5817,-6.75274 11.41179,-11.02594 21.27763,-13.31218 3.63529,-0.84242 3.70164,-0.8454 16.30366,-0.73359 12.33694,0.10946 12.66584,0.0957 13.14523,-0.54797 0.70702,-0.94936 0.34002,-2.82961 -1.12761,-5.77705 -1.67412,-3.36216 -3.415,-4.67297 -7.43546,-5.59866 -5.12834,-1.18076 -11.57582,-0.73023 -21.36214,1.49274 -1.78197,0.40477 -4.12567,0.57323 -8.36236,0.60105 -6.79352,0.0446 -6.53173,0.16012 -7.85375,-3.46564 -0.43067,-1.18114 -1.11412,-2.29985 -1.71282,-2.80362 -0.94981,-0.79922 -1.30284,-0.83917 -2.62086,-0.29657 -1.013,0.41702 -0.67895,-0.95266 1.03723,-4.25301 2.60928,-5.01786 5.86172,-9.6128 8.57185,-12.11002 1.34866,-1.2427 4.69628,-3.85385 7.43916,-5.80255 9.00308,-6.39631 11.02904,-8.12447 13.64955,-11.64321 2.21333,-2.97203 3.40202,-5.47246 3.4753,-7.31054 0.0715,-1.79223 -0.99464,-2.75513 -3.62567,-3.27465 -1.05037,-0.2074 -2.80108,-0.6629 -3.89046,-1.01222 -1.08939,-0.34932 -2.79775,-0.78201 -3.79635,-0.96155 -1.73619,-0.31215 -3.5824,-0.8455 -8.80356,-2.54329 -1.30146,-0.4232 -2.58334,-0.76945 -2.84862,-0.76945 -0.48831,0 -2.98977,-1.04048 -6.01384,-2.50146 -0.9104,-0.43984 -1.74942,-0.79971 -1.8644,-0.79971 -0.30331,0 -4.45543,-2.53235 -6.38377,-3.89344 -2.59317,-1.83031 -6.34974,-5.62799 -8.0676,-8.15584 -0.86369,-1.27095 -2.65015,-4.39056 -3.96993,-6.93246 -4.47698,-8.6228 -4.13732,-8.17948 -8.92491,-11.64793 -3.93589,-2.8514 -7.39951,-5.61741 -9.5734,-7.64516 -5.00929,-4.67257 -7.18632,-5.70698 -12.87457,-6.11735 -3.85435,-0.27807 -6.25942,-0.76348 -6.31164,-1.27387 -0.14611,-1.42812 0.16139,-4.41666 0.48953,-4.7577 0.30503,-0.317 1.14818,-0.33782 3.68648,-0.091 3.75387,0.36495 9.08579,0.43616 9.8786,0.13192 0.67707,-0.25981 1.50032,-1.83077 1.50032,-2.86297 0,-0.43451 -0.29711,-1.65356 -0.66024,-2.70901 -0.36313,-1.05546 -0.66023,-2.33442 -0.66023,-2.84215 0,-1.16712 -0.60326,-2.51229 -1.23547,-2.75489 -0.96344,-0.36971 -2.93791,0.49578 -4.87619,2.13744 -1.08692,0.92059 -2.3476,1.87107 -2.80151,2.11218 -0.45391,0.2411 -1.64233,0.90018 -2.64094,1.46462 -0.9986,0.56443 -1.98116,1.02894 -2.18343,1.03222 -0.20229,0.003 -0.63303,-0.68848 -0.9572,-1.53729 -0.58936,-1.54327 -0.58936,-1.54327 0.36781,-2.31585 0.52644,-0.42491 2.4427,-1.22921 4.25835,-1.78733 4.22019,-1.29725 4.7867,-1.65777 4.7867,-3.04616 0,-1.4885 -0.38448,-1.86604 -3.79635,-3.72775 -1.63408,-0.89165 -3.41671,-1.87591 -3.96141,-2.18725 -2.0426,-1.16752 -3.20362,-1.59119 -3.82236,-1.39481 -1.18241,0.37529 -2.50607,1.76805 -4.21556,4.43565 -0.93529,1.45949 -2.44329,3.81351 -3.35112,5.23116 -1.32189,2.06426 -1.65058,2.8588 -1.65058,3.98998 0,1.2724 -0.19247,1.61415 -1.94141,3.44709 -1.06778,1.11906 -2.33588,2.82029 -2.81801,3.78051 -0.97398,1.93979 -1.82665,2.44889 -3.61538,2.15861 -1.32547,-0.21509 -1.64757,-0.74288 -1.18917,-1.94856 0.17657,-0.46441 0.53921,-1.89078 0.80588,-3.16972 0.26667,-1.27894 0.61861,-2.49462 0.7821,-2.70153 0.16349,-0.20689 0.48556,-0.97038 0.71571,-1.69664 0.23015,-0.72626 1.24554,-2.95455 2.25641,-4.95176 8.18806,-16.17739 25.14128,-29.33129 44.78299,-34.74682 2.39618,-0.66066 4.01013,-0.85184 8.34113,-0.98805 4.88197,-0.15354 5.79709,-0.0875 10.06857,0.72618 9.16211,1.74539 15.84071,3.17196 18.58596,3.97004 0.97678,0.28395 3.45101,0.95291 5.49833,1.48659 2.04732,0.53367 6.2478,1.89197 9.33439,3.01845 5.49995,2.00725 5.67788,2.04793 8.91316,2.03743 2.07228,-0.007 4.50036,-0.26878 6.52256,-0.70396 7.96826,-1.71476 23.39738,-1.67027 33.31733,0.0961 2.41768,0.43049 5.80706,0.88297 7.53192,1.0055 1.72486,0.12253 3.65605,0.36462 4.29152,0.53798 0.63548,0.17336 6.94897,0.75359 14.02998,1.28942 15.29214,1.15716 19.37262,1.55278 20.52166,1.98964 0.47171,0.17934 1.54376,0.46917 2.38232,0.64406 0.83857,0.17488 4.05008,1.12735 7.13667,2.1166 5.91557,1.89593 10.15748,2.92151 14.52516,3.51181 12.96436,1.75213 23.98294,1.33697 41.09958,-1.54855 7.82839,-1.31971 35.67793,-0.22971 37.37028,1.46263 0.56697,0.56698 -0.0615,1.70637 -2.28587,4.14389 -3.1641,3.4674 -6.56916,6.42226 -10.22428,8.87254 -4.28823,2.87469 -5.43551,3.4129 -8.54126,4.00686 -1.44046,0.27548 -3.58461,0.71985 -4.76477,0.98747 -1.18017,0.26763 -3.55702,0.58256 -5.28188,0.69985 -3.44124,0.234 -13.66249,1.65353 -15.5464,2.15909 -0.82866,0.22237 -2.01893,1.16512 -3.9479,3.12688 -1.69776,1.72663 -4.07646,3.66677 -6.17494,5.0365 -6.57828,4.29377 -11.15331,7.40625 -12.7894,8.70087 -0.90782,0.71835 -3.5075,2.54943 -5.77705,4.06905 -5.72446,3.83292 -7.53575,5.38538 -11.45427,9.81745 -3.80067,4.29876 -8.30829,8.18753 -14.9551,12.9019 -10.77562,7.64282 -10.55886,7.49792 -13.81401,9.23451 -1.38973,0.7414 -3.04408,1.69615 -3.67629,2.12165 -0.63224,0.42551 -1.28075,0.77365 -1.44116,0.77365 -0.16037,0 -1.29716,0.66849 -2.52615,1.48553 -1.22899,0.81704 -2.36994,1.48553 -2.53546,1.48553 -0.16549,0 -1.35236,0.64827 -2.63751,1.44061 -2.61941,1.61497 -2.59541,1.60193 -8.52544,4.63314 -2.35954,1.2061 -4.73639,2.32792 -5.28187,2.49293 -1.84232,0.55728 -5.27953,2.06874 -5.85324,2.57387 -0.31348,0.27599 -1.18512,2.07887 -1.93703,4.00642 -2.73126,7.00176 -3.86118,8.61161 -7.13852,10.17053 -2.12298,1.00985 -2.68101,1.13306 -5.11681,1.12979 -2.62414,-0.004 -3.72498,-0.15598 -7.35557,-1.01872 -1.57136,-0.37339 -1.80116,-0.33381 -4.7867,0.82446 -1.72486,0.66917 -3.8046,1.43824 -4.62164,1.70904 -0.81704,0.27079 -1.93119,0.69298 -2.47588,0.93818 -3.18721,1.43479 -4.92429,2.1239 -6.53203,2.59128 -1.93221,0.56172 -2.87631,1.53132 -2.87631,2.95404 0,1.17689 1.16043,1.47984 6.43729,1.68056 3.83972,0.14605 5.08502,0.32874 7.36065,1.0798 2.35756,0.77811 2.98839,1.15818 4.52941,2.72895 4.33463,4.41828 9.43032,11.79725 10.68516,15.47304 0.86289,2.52763 0.86289,2.52763 1.02805,20.05605 0.181,19.20951 0.0737,18.26945 2.18666,19.15272 0.56714,0.23707 2.05267,0.58806 3.30117,0.77998 3.78965,0.58254 5.87853,1.51183 6.95128,3.09244 0.83516,1.23051 0.93024,1.64924 0.92595,4.07808 -0.005,2.55148 -0.0613,2.76587 -0.99036,3.73694 -0.54205,0.56659 -1.43122,1.30394 -1.97591,1.63854 -1.48087,0.90969 -7.44649,1.39102 -15.70988,1.26753 -7.12683,-0.1065 -7.12683,-0.1065 -8.49626,-1.05627 -1.65781,-1.14978 -3.60478,-1.22597 -5.85802,-0.22925 -0.82114,0.36322 -2.37288,0.81996 -3.44837,1.01499 -1.07552,0.19502 -2.47803,0.57292 -3.1167,0.83978 -0.63868,0.26686 -2.31429,0.63626 -3.72363,0.82089 -1.4093,0.18464 -3.23085,0.47221 -4.04789,0.63906 -2.24945,0.45937 -7.81949,0.63836 -10.23363,0.32887 z m 9.52774,-14.18946 c 4.1362,-0.67486 6.95732,-1.45483 10.32055,-2.85339 1.02131,-0.42469 2.02012,-0.77217 2.21957,-0.77217 0.34026,0 3.22627,-1.3777 6.11404,-2.91868 2.44735,-1.30597 2.51899,-1.4497 2.51899,-5.05529 0,-3.51504 -0.37706,-4.3769 -2.05485,-4.69699 -5.98654,-1.14213 -9.57699,-1.52407 -14.32705,-1.52407 -2.88483,0 -5.76407,0.15559 -6.39836,0.34575 -0.63429,0.19017 -2.27675,0.54973 -3.64994,0.79902 -3.06349,0.55616 -7.31685,2.52842 -10.26361,4.75919 -4.05182,3.0673 -4.48751,4.44339 -2.28781,7.2262 2.78253,3.52016 4.30156,4.30968 9.61374,4.99676 3.29308,0.42593 3.82975,0.40587 8.19473,-0.30633 z m -8.20727,-63.56778 c 0.78462,-0.41015 4.71337,-2.11038 7.92281,-3.42869 0.81704,-0.3356 2.45112,-0.94122 3.63128,-1.3458 1.18017,-0.40458 5.71103,-1.95258 10.06858,-3.44 8.54739,-2.91758 9.53619,-3.33915 10.6023,-4.52021 0.91327,-1.01174 2.1072,-4.65307 2.1072,-6.42664 0,-1.2049 -0.60398,-2.43536 -1.19538,-2.43536 -0.30539,0 -2.29511,1.08554 -4.59381,2.50628 -2.97175,1.83672 -7.22184,3.08687 -11.57114,3.4036 -3.64786,0.26567 -4.45618,0.60226 -7.56351,3.14958 -0.90782,0.74421 -2.5419,2.01351 -3.63128,2.82066 -1.08939,0.80716 -2.59208,1.99246 -3.3393,2.634 -0.74722,0.64155 -2.34948,1.95969 -3.56058,2.92922 -2.53893,2.0325 -3.30989,3.04938 -3.01539,3.97719 0.33418,1.05297 2.30078,1.13669 4.13822,0.17617 z m 44.69188,-15.43163 c 1.0913,-1.16356 3.17348,-6.65662 3.17694,-8.38107 0.003,-1.60859 0.66582,-3.38564 1.45526,-3.90291 0.42027,-0.27537 1.80607,-0.78941 3.07956,-1.14231 1.2735,-0.3529 3.42325,-1.14648 4.77723,-1.76352 1.35397,-0.61703 3.01902,-1.30577 3.70008,-1.53054 2.52292,-0.83264 8.79049,-4.33882 11.9302,-6.67395 0.91898,-0.6835 2.32657,-1.47405 3.12793,-1.75679 1.37365,-0.48465 6.96728,-3.37252 8.40584,-4.33976 0.36312,-0.24415 2.59142,-1.72884 4.95175,-3.29931 2.36034,-1.57046 5.6285,-3.84873 7.26258,-5.06282 1.63408,-1.21408 4.77689,-3.48995 6.98406,-5.05749 3.57394,-2.53827 4.44502,-3.36752 7.96209,-7.57994 4.77835,-5.72307 5.85374,-6.68435 10.7943,-9.64881 2.11816,-1.27095 5.58631,-3.65032 7.70698,-5.28749 5.5563,-4.28945 8.76418,-6.47194 11.8658,-8.07294 2.99571,-1.54633 5.1897,-3.66586 6.52763,-6.30618 1.28627,-2.53828 2.26543,-3.13853 5.52897,-3.38939 1.54392,-0.11867 4.79105,-0.51393 7.2159,-0.87836 2.42481,-0.36442 6.41421,-0.88891 8.86533,-1.16553 7.42746,-0.83824 11.70423,-1.63957 12.98931,-2.4338 2.81448,-1.73945 4.07054,-5.04856 2.34535,-6.17894 -0.74735,-0.48969 -1.58898,-0.52512 -7.55489,-0.318 -3.6926,0.1282 -7.65928,0.37483 -8.81486,0.54808 -1.15557,0.17324 -3.36373,0.47113 -4.90702,0.66197 -5.59357,0.69169 -10.12232,1.26524 -12.70951,1.60964 -1.45252,0.19335 -3.47851,0.43296 -4.5022,0.53247 -1.0237,0.0995 -2.09681,0.358 -2.3847,0.57443 -0.2879,0.21642 -0.90981,1.87903 -1.38201,3.69467 -1.62114,6.23323 -2.99099,7.37057 -14.75676,12.2521 -1.04399,0.43314 -2.75235,1.14236 -3.79635,1.57603 -1.04399,0.43368 -3.23514,1.33507 -4.86922,2.00309 -3.18659,1.30269 -10.95365,5.27634 -14.19504,7.2622 -2.08327,1.27634 -11.19176,5.79183 -11.68307,5.79183 -0.15754,0 -1.15855,0.3814 -2.2245,0.84756 -3.63901,1.59142 -4.91191,2.05693 -10.19098,3.727 -5.62239,1.77866 -9.42933,2.8256 -15.02033,4.13069 -1.90642,0.44501 -5.10031,1.19443 -7.09751,1.66537 -1.99721,0.47094 -4.37406,0.95232 -5.28188,1.06972 -0.90782,0.11741 -2.839,0.76991 -4.29152,1.45001 -3.98933,1.86788 -8.40637,3.59611 -15.84562,6.19983 -8.8815,3.10851 -14.12241,3.40831 -19.84846,1.13541 -4.0952,-1.62555 -8.70667,-4.89723 -8.70667,-6.17707 0,-0.72748 3.21385,-4.14501 3.89799,-4.14501 0.16839,0 1.55142,0.83603 3.07332,1.85783 4.40505,2.95749 6.63473,3.89073 9.19416,3.84826 1.24616,-0.0207 2.92226,-0.31474 3.97167,-0.6968 0.99861,-0.36355 4.26677,-1.43478 7.26258,-2.38049 5.13223,-1.62015 12.82449,-4.56807 15.61556,-5.98441 1.71219,-0.86885 5.17505,-1.6959 13.49077,-3.22205 5.75783,-1.05671 8.09463,-1.66403 12.81854,-3.33144 3.17738,-1.12153 6.96547,-2.37745 8.41799,-2.79092 5.94782,-1.69309 10.88739,-3.8265 16.60235,-7.17058 1.64682,-0.96363 3.78433,-2.18852 4.75005,-2.72196 2.26863,-1.25318 12.83822,-6.21105 17.93153,-8.41114 2.17878,-0.94113 5.05578,-2.18646 6.39335,-2.7674 2.90605,-1.26217 4.33546,-2.47038 4.33546,-3.66458 0,-1.3854 -0.98028,-2.04812 -3.60607,-2.43784 -2.87089,-0.4261 -3.83768,-1.00553 -4.51904,-2.7084 -0.66482,-1.66153 -1.27025,-1.84617 -7.55545,-2.30422 -8.59688,-0.62652 -8.43413,-0.59477 -9.64817,-1.88203 -0.59434,-0.6302 -1.08064,-1.25176 -1.08064,-1.38125 0,-0.9971 -5.89662,-2.55784 -11.38904,-3.01451 -1.81564,-0.15096 -5.52946,-0.51065 -8.25293,-0.79932 -2.72346,-0.28866 -8.21991,-0.73774 -12.21433,-0.99796 -7.15743,-0.46627 -11.02868,-0.89946 -19.47691,-2.17943 -7.04896,-1.06797 -9.38638,-1.27843 -16.74572,-1.50775 -12.44568,-0.38782 -16.0455,0.39461 -20.22739,4.39643 -1.08939,1.04249 -4.35755,4.20328 -7.26258,7.02398 -8.26003,8.02027 -12.03465,10.79 -19.75322,14.49444 -3.96345,1.90222 -6.00592,3.66835 -7.24878,6.268 -0.71678,1.49925 -0.76234,1.52913 -2.99726,1.96466 -1.99189,0.38817 -2.33126,0.38042 -2.77503,-0.0633 -0.43655,-0.43657 -0.45177,-0.83493 -0.11138,-2.91813 0.49999,-3.06015 1.94472,-6.18932 3.38452,-7.33069 0.61108,-0.48442 2.82059,-1.66554 4.91,-2.62471 4.84051,-2.22208 6.37416,-3.11365 10.23105,-5.9476 3.45894,-2.54155 5.81617,-4.53233 9.31317,-7.86542 2.03329,-1.93801 2.3371,-2.3836 2.47575,-3.63129 0.20011,-1.80082 -0.57404,-2.60837 -3.37644,-3.52213 -1.08635,-0.35423 -3.23789,-1.10677 -4.78119,-1.67231 -1.54329,-0.56554 -3.62303,-1.23923 -4.62164,-1.49709 -0.9986,-0.25785 -3.07834,-0.85922 -4.62164,-1.33637 -3.94628,-1.2201 -10.66232,-2.72413 -15.5155,-3.47461 -2.26956,-0.35096 -4.9435,-0.8153 -5.94211,-1.03185 -0.9986,-0.21656 -3.74683,-0.40459 -6.10716,-0.41784 -3.65975,-0.0206 -4.8077,0.10937 -7.79783,0.88254 -9.41125,2.4335 -17.38202,6.91236 -22.57295,12.68394 -4.85821,5.40168 -5.01874,7.23572 -0.81883,9.35583 1.95315,0.98593 6.70324,4.76274 8.97781,7.13824 1.22655,1.28095 1.22655,1.28095 1.37771,5.07759 0.2458,6.17388 1.09199,7.68232 8.04284,14.33763 3.87954,3.71462 7.07629,5.97834 11.37412,8.05437 4.18648,2.02226 4.29456,2.13835 4.87022,5.23169 0.33173,1.78257 1.44452,4.69508 2.8766,7.52901 3.73571,7.39239 9.4982,12.98842 17.10862,16.61439 2.36773,1.12811 11.46035,4.12695 16.67157,5.49848 5.25511,1.38306 16.87467,3.84215 21.78707,4.61086 4.61676,0.72245 8.56661,1.42172 11.42555,2.02273 3.95603,0.83165 4.51782,1.91764 4.47395,8.64827 -0.0297,4.57078 0.22577,6.22914 1.03967,6.74667 0.73273,0.46591 1.30261,0.26124 2.3337,-0.83815 z m -101.05288,-94.64879 c 0.2537,-2.79798 0.46306,-2.96509 3.66519,-2.92581 4.53859,0.0557 5.34004,0.6318 3.49878,2.51508 -1.49579,1.52995 -3.52693,2.40377 -5.58743,2.40377 -1.75728,0 -1.75728,0 -1.57654,-1.99304 z m -78.32679,186.30908 c -1.5433,-0.0471 -6.96547,-0.23849 -12.04927,-0.42529 -5.08381,-0.1868 -13.00473,-0.36394 -17.60205,-0.39365 -10.78726,-0.0697 -13.18891,-0.27881 -14.58015,-1.26946 -1.36539,-0.97224 -2.63772,-3.67407 -2.64193,-5.61025 -0.005,-2.15289 1.32021,-4.58263 3.06271,-5.61673 1.39064,-0.82529 1.39064,-0.82529 12.94474,-0.99035 11.82223,-0.16889 12.69187,-0.26819 13.16585,-1.50336 0.11214,-0.29224 0.20609,-3.75022 0.20878,-7.68439 0.003,-3.93418 0.15057,-12.02917 0.32863,-17.98887 0.21437,-7.17512 0.21283,-11.04305 -0.005,-11.44921 -0.18055,-0.33737 -0.66267,-0.72082 -1.07139,-0.85213 -0.40872,-0.13131 -3.93701,-0.25342 -7.84064,-0.27136 -8.14648,-0.0374 -10.07385,-0.4316 -12.25253,-2.50567 -2.15417,-2.05075 -2.32984,-4.47056 -0.58499,-8.05788 1.42855,-2.93701 1.45724,-2.94531 10.2679,-2.96761 13.84842,-0.035 24.39221,0.3196 24.73905,0.83213 0.2411,0.35628 0.14454,35.28733 -0.13521,48.91152 -0.0617,3.00396 0.4017,3.29964 5.61334,3.5818 2.31481,0.12532 6.29945,0.24075 8.85476,0.2565 5.49332,0.0339 11.17886,0.78415 12.33461,1.62772 1.68365,1.22887 2.15694,2.25864 2.27187,4.94302 0.093,2.17178 -0.005,2.74892 -0.68316,4.01737 -1.20919,2.2623 -2.03023,2.58399 -7.53033,2.95049 -5.73389,0.38208 -12.98048,0.58275 -16.81606,0.46566 z m -185.69995,-1.88062 c -0.35813,-0.2472 -1.91385,-1.11696 -3.45715,-1.9328 -2.50143,-1.32235 -5.61372,-3.0077 -12.54445,-6.79302 -1.18017,-0.64457 -2.88853,-1.56679 -3.79635,-2.04939 -1.55851,-0.82851 -4.94688,-2.74644 -6.7674,-3.83058 -0.45391,-0.27031 -1.4195,-0.7867 -2.14576,-1.14752 -0.72626,-0.36083 -2.06323,-1.09209 -2.97105,-1.62503 -0.90783,-0.53293 -2.26273,-1.25371 -3.01094,-1.60173 -0.74817,-0.34801 -2.15942,-1.13576 -3.13611,-1.75056 -0.97668,-0.61479 -2.14715,-1.28152 -2.60106,-1.48163 -0.45391,-0.20011 -2.51575,-1.34802 -4.58189,-2.55092 -2.0661,-1.2029 -3.85679,-2.18709 -3.97929,-2.18709 -0.12248,0 -0.91856,-0.44129 -1.76904,-0.98064 -0.85048,-0.53935 -2.4765,-1.49175 -3.61339,-2.11644 -6.15177,-3.38021 -13.06944,-7.29978 -13.83719,-7.84021 -0.48194,-0.33924 -1.00187,-0.61928 -1.15541,-0.62231 -0.29166,-0.006 -4.30275,-2.37605 -5.72275,-3.38178 -1.14392,-0.8102 -0.71923,-1.32675 2.47324,-3.00834 1.45212,-0.76489 3.01163,-1.62556 3.46554,-1.9126 0.45391,-0.28704 1.86516,-1.08381 3.13611,-1.7706 1.27095,-0.68678 3.49924,-1.91704 4.95176,-2.7339 3.56797,-2.00655 5.91527,-3.28668 8.78095,-4.78881 1.32281,-0.69341 2.78506,-1.5204 3.24937,-1.83776 1.33793,-0.91445 7.51568,-4.32914 7.83216,-4.32914 0.15753,0 0.80374,-0.34927 1.43598,-0.77615 0.6322,-0.42689 2.11509,-1.29806 3.29526,-1.93595 4.00726,-2.16596 5.77361,-3.14716 7.52469,-4.17995 0.9612,-0.56691 1.82049,-1.03076 1.90949,-1.03076 0.089,0 3.50291,-1.85691 7.58637,-4.12646 4.08347,-2.26956 7.51459,-4.12646 7.62471,-4.12646 0.11012,0 1.48056,-0.72715 3.0454,-1.61589 5.08441,-2.88763 10.05627,-5.31657 10.8826,-5.31657 1.27278,0 4.55293,1.31614 5.32296,2.1358 0.43719,0.46537 0.90345,1.73077 1.24326,3.37418 0.46278,2.23802 0.47833,2.78748 0.10447,3.69006 -0.71122,1.71703 -3.98597,4.18553 -9.5913,7.22991 -0.99861,0.54236 -3.7009,2.04402 -6.0051,3.337 -2.3042,1.29299 -4.25734,2.35089 -4.34031,2.35089 -0.083,0 -1.0945,0.5716 -2.24784,1.27021 -1.84651,1.1185 -6.51261,3.70011 -12.16554,6.73082 -0.9986,0.53538 -1.96419,1.08757 -2.14576,1.22708 -0.18156,0.13951 -3.89538,2.22609 -8.25293,4.63684 -7.84826,4.34195 -10.06856,5.87741 -10.06856,6.96299 0,0.96029 1.9362,2.32844 8.08925,5.71595 3.2674,1.79884 6.61409,3.67167 7.43711,4.16184 0.82301,0.49017 2.15999,1.21153 2.97105,1.60303 0.81107,0.3915 1.91782,0.96979 2.45942,1.28509 0.54162,0.3153 1.95287,1.10378 3.13611,1.75217 1.18325,0.64839 2.44847,1.34721 2.8116,1.55292 0.36313,0.20572 4.2255,2.33789 8.58304,4.73816 4.35755,2.40027 8.74644,4.9052 9.75309,5.56652 1.00666,0.66132 2.95546,1.82351 4.33067,2.58264 4.89808,2.7038 6.24389,4.65378 5.59799,8.11109 -0.36266,1.94125 -0.98997,2.86628 -3.04583,4.49134 -1.51008,1.19365 -1.85963,1.32391 -3.55248,1.32391 -1.04517,0 -2.1663,-0.19926 -2.52877,-0.44945 z m 401.26643,-0.26579 c -0.99861,-0.36186 -2.06852,-0.88551 -2.37761,-1.16367 -0.76999,-0.69295 -1.35097,-3.74333 -1.19112,-6.25378 0.16555,-2.59957 0.64237,-3.15023 4.88712,-5.64388 1.72601,-1.01396 3.80667,-2.26406 4.62371,-2.77799 0.81704,-0.51394 2.22829,-1.30184 3.13612,-1.7509 0.90782,-0.44906 2.91328,-1.56062 4.45658,-2.47012 1.5433,-0.90951 3.42047,-1.94247 4.17152,-2.29546 0.75105,-0.353 1.96397,-1.01957 2.69534,-1.48128 0.73141,-0.46171 2.64233,-1.53216 4.24646,-2.37878 1.60418,-0.84662 3.15117,-1.74406 3.43781,-1.99431 0.28664,-0.25026 0.63307,-0.45501 0.76983,-0.45501 0.13674,0 3.24466,-1.66311 6.90645,-3.6958 3.66182,-2.03269 8.12293,-4.45999 9.91361,-5.394 1.79066,-0.93401 3.75898,-2.09974 4.37406,-2.5905 2.16774,-1.72968 1.23348,-3.38048 -3.27051,-5.77901 -1.57238,-0.83733 -5.82957,-3.19364 -9.46046,-5.23624 -3.63089,-2.0426 -6.73383,-3.71382 -6.89542,-3.71382 -0.16159,0 -0.64809,-0.27434 -1.08107,-0.60966 -0.76821,-0.59487 -4.74589,-2.81599 -7.38964,-4.12631 -0.72625,-0.35996 -1.54329,-0.83583 -1.81564,-1.05749 -0.27235,-0.22166 -1.60932,-0.96914 -2.97105,-1.66106 -1.36174,-0.69193 -2.69871,-1.432 -2.97106,-1.64462 -0.27234,-0.21261 -1.60932,-0.98199 -2.97105,-1.70972 -1.36173,-0.72773 -4.20635,-2.30726 -6.32138,-3.51007 -2.11503,-1.20281 -3.9825,-2.18692 -4.14994,-2.18692 -0.51155,0 -3.17655,-2.71873 -4.30717,-4.39399 -1.05498,-1.56323 -1.36846,-2.9735 -0.74642,-3.35795 0.17641,-0.10902 0.60187,-0.82342 0.94552,-1.58754 0.80525,-1.79062 1.78517,-2.6625 3.94533,-3.51031 2.59676,-1.01918 3.39343,-0.89397 6.95335,1.09285 1.75203,0.97782 5.04244,2.73765 7.312,3.91073 2.26955,1.17308 6.42903,3.39967 9.24328,4.94798 2.81424,1.54832 6.23096,3.41133 7.59269,4.14002 2.35789,1.26175 6.1751,3.34369 10.31745,5.62724 1.04468,0.57591 2.49014,1.41999 3.21207,1.87574 0.72193,0.45574 1.427,0.82873 1.56677,0.82886 0.1398,1.4e-4 1.51068,0.74775 3.04645,1.66137 1.53577,0.91362 4.06117,2.3574 5.61199,3.2084 1.55082,0.85101 3.21689,1.77461 3.70233,2.05245 0.48544,0.27785 1.81713,0.9962 2.95927,1.59635 1.14214,0.60014 2.2305,1.21824 2.41854,1.37353 0.18803,0.1553 1.30749,0.79057 2.48766,1.41172 4.50752,2.3724 7.43991,3.9645 7.75775,4.21195 0.18157,0.14136 1.66709,0.9628 3.30117,1.82542 3.22696,1.70349 3.61762,2.05045 3.06223,2.71967 -0.36511,0.43993 -3.85682,2.56238 -6.3634,3.86802 -0.72626,0.37829 -3.77159,2.07072 -6.7674,3.76095 -2.99581,1.69023 -5.89259,3.31427 -6.43728,3.60899 -0.5447,0.29472 -2.02884,1.13488 -3.2981,1.86702 -1.26927,0.73214 -2.86275,1.62827 -3.54107,1.9914 -0.67833,0.36312 -2.24965,1.20345 -3.49185,1.86739 -1.24216,0.66394 -2.98307,1.66667 -3.86864,2.22829 -0.88561,0.56162 -1.72674,1.02113 -1.86926,1.02113 -0.14247,0 -1.04185,0.49634 -1.99859,1.10296 -0.95675,0.60664 -3.07649,1.81907 -4.71057,2.6943 -4.85781,2.60189 -6.13955,3.30484 -8.91317,4.88832 -1.45251,0.82925 -3.45797,1.94028 -4.45658,2.46896 -1.63015,0.86303 -5.07541,2.75416 -9.24328,5.0737 -0.81704,0.45471 -2.07973,1.17461 -2.80599,1.59978 -0.72626,0.42517 -2.06323,1.17263 -2.97105,1.66103 -0.90783,0.48839 -2.46763,1.35125 -3.46623,1.91747 -2.17732,1.23456 -4.16727,1.32819 -6.93246,0.3262 z m -103.63073,-54.60688 c 0.0159,-0.38457 0.0941,-0.46279 0.19946,-0.19945 0.0954,0.2383 0.0837,0.52303 -0.0261,0.63273 -0.1097,0.10969 -0.18774,-0.0853 -0.17341,-0.43328 z m -132.79969,-26.46439 c -0.41438,-0.47973 -0.48366,-1.62528 -0.40853,-6.75483 0.0498,-3.39741 0.18577,-6.33133 0.30226,-6.51981 0.13618,-0.22034 2.85248,-0.34269 7.60833,-0.34269 6.97488,0 7.41603,0.0364 7.73828,0.63853 0.19836,0.37064 0.34173,3.07136 0.34173,6.43729 0,7.73456 0.70891,7.11922 -8.20177,7.11922 -6.14344,0 -6.9348,-0.0619 -7.3803,-0.57771 z"
       id="path4203-3"
       inkscape:connector-curvature="0" />
  </g>
  <g
     inkscape:groupmode="layer"
     id="layer2"
     inkscape:label="t"
     style="display:inline"
     transform="translate(971.57112,-555.71797)">
    <path
       style="fill:#074f9c"
       d="m -652.85401,615.9163 c 0,0 0.16702,-0.96656 -2.3716,14.22618 -1.15953,6.93936 -1.1025,7.61261 0.74739,8.82334 0.67019,0.43862 2.8526,1.40876 4.84981,2.15586 12.8399,4.80301 23.20482,9.49431 25.1778,11.39579 1.543,1.48706 2.425,5.1046 1.47598,6.05363 -0.51184,0.51184 -1.45575,0.54049 -11.13065,0.33773 -5.81426,-0.12184 -11.68552,-0.3546 -13.04725,-0.51725 -1.36174,-0.16264 -4.12497,-0.40083 -6.14052,-0.5293 -3.66465,-0.23359 -3.66465,-0.23359 -4.719,0.71352 -1.01523,0.91196 -1.06597,1.08185 -1.36726,4.57839 -0.1721,1.99721 -0.4104,7.56793 -0.52956,12.37939 -0.25282,10.20834 0.12392,15.98014 1.57297,24.09855 1.18368,6.63163 2.3324,9.33796 4.97023,11.70959 1.90393,1.7118 5.85516,3.7166 9.38484,4.76173 4.02604,1.19211 4.14706,1.15459 8.42395,-2.61189 4.67945,-4.12097 7.13618,-5.69006 8.87151,-5.66611 4.01881,0.0555 7.01885,4.87533 5.63826,9.05849 -0.42661,1.29267 -3.08804,3.96932 -7.12099,7.1617 -5.61615,4.44561 -10.47927,6.8378 -15.84832,7.79591 -3.37472,0.60221 -5.49133,0.59644 -7.86352,-0.0214 -5.4588,-1.42184 -9.56432,-5.26457 -19.47071,-18.22443 -2.13689,-2.79554 -4.56339,-7.81519 -5.79253,-11.98286 -1.84068,-6.24126 -2.65755,-15.60183 -2.05981,-23.60337 0.20346,-2.72347 0.58812,-7.84854 0.8548,-11.38904 0.26668,-3.54051 0.4871,-7.28068 0.48982,-8.3115 0.007,-2.7503 -0.23842,-2.89804 -7.25763,-4.36434 -9.04186,-1.88884 -15.03312,-3.71828 -19.64197,-5.9977 -4.27164,-2.11264 -4.62808,-2.43948 -4.59096,-4.20964 0.0316,-1.50516 0.5279,-2.43531 2.64104,-4.94939 1.04652,-1.24509 1.47445,-2.7648 1.90355,-6.76014 0.24908,-2.31914 0.5524,-2.48865 3.99639,-2.23337 5.07441,0.37613 10.86505,1.15276 17.62369,2.36365 10.44956,1.87215 9.9069,1.80874 11.12441,1.30003 1.3633,-0.56962 1.50699,-1.07517 3.75697,-13.21905 0.3364,-1.81565 0.84286,-4.11822 1.12548,-5.11682 0.88249,-3.1182 1.29647,-5.86324 1.06795,-7.08136 14.64719,-22.94315 18.49924,-6.9699 13.25544,7.87551 z m 5.2438,-14.84541 c -2.15247,174.23743 -1.07623,87.11871 0,0 z"
       id="path4207"
       inkscape:connector-curvature="0"
       sodipodi:nodetypes="cssssssssssssssssssssssssssssssssssscccc" />
  </g>
</svg>
