<?xml version="1.0" encoding="UTF-8" standalone="no"?>
<!-- Generator: Adobe Illustrator 19.0.0, SVG Export Plug-In . SVG Version: 6.00 Build 0)  -->

<svg
   xmlns:dc="http://purl.org/dc/elements/1.1/"
   xmlns:cc="http://creativecommons.org/ns#"
   xmlns:rdf="http://www.w3.org/1999/02/22-rdf-syntax-ns#"
   xmlns:svg="http://www.w3.org/2000/svg"
   xmlns="http://www.w3.org/2000/svg"
   xmlns:sodipodi="http://sodipodi.sourceforge.net/DTD/sodipodi-0.dtd"
   xmlns:inkscape="http://www.inkscape.org/namespaces/inkscape"
   version="1.1"
   id="Capa_1"
   x="0px"
   y="0px"
   viewBox="0 0 117.18735 150"
   xml:space="preserve"
   sodipodi:docname="page-icon.svg"
   width="117.18735"
   height="150"
   inkscape:version="0.92.1 r"><metadata
     id="metadata52"><rdf:RDF><cc:Work
         rdf:about=""><dc:format>image/svg+xml</dc:format><dc:type
           rdf:resource="http://purl.org/dc/dcmitype/StillImage" /><dc:title></dc:title></cc:Work></rdf:RDF></metadata><defs
     id="defs50" /><sodipodi:namedview
     pagecolor="#ffffff"
     bordercolor="#666666"
     borderopacity="1"
     objecttolerance="10"
     gridtolerance="10"
     guidetolerance="10"
     inkscape:pageopacity="0"
     inkscape:pageshadow="2"
     inkscape:window-width="1920"
     inkscape:window-height="1025"
     id="namedview48"
     showgrid="false"
     fit-margin-top="0"
     fit-margin-left="0"
     fit-margin-right="0"
     fit-margin-bottom="0"
     inkscape:zoom="1.3622629"
     inkscape:cx="184.75396"
     inkscape:cy="260.54455"
     inkscape:window-x="0"
     inkscape:window-y="27"
     inkscape:window-maximized="1"
     inkscape:current-layer="Capa_1" /><g
     id="line_2_"
     transform="matrix(0.30612245,0,0,0.30612245,-16.406327,0)"><path
       d="M 436.406,76.563 367.5,0 H 53.594 V 490 H 436.406 Z M 405.781,459.375 H 84.219 V 30.625 H 353.75 v 60.806 h 52.032 v 367.944 z"
       id="path2"
       inkscape:connector-curvature="0" /></g><g
     id="g17"
     transform="matrix(0.30612245,0,0,0.30612245,-16.406327,0)" /><g
     id="g19"
     transform="matrix(0.30612245,0,0,0.30612245,-16.406327,0)" /><g
     id="g21"
     transform="matrix(0.30612245,0,0,0.30612245,-16.406327,0)" /><g
     id="g23"
     transform="matrix(0.30612245,0,0,0.30612245,-16.406327,0)" /><g
     id="g25"
     transform="matrix(0.30612245,0,0,0.30612245,-16.406327,0)" /><g
     id="g27"
     transform="matrix(0.30612245,0,0,0.30612245,-16.406327,0)" /><g
     id="g29"
     transform="matrix(0.30612245,0,0,0.30612245,-16.406327,0)" /><g
     id="g31"
     transform="matrix(0.30612245,0,0,0.30612245,-16.406327,0)" /><g
     id="g33"
     transform="matrix(0.30612245,0,0,0.30612245,-16.406327,0)" /><g
     id="g35"
     transform="matrix(0.30612245,0,0,0.30612245,-16.406327,0)" /><g
     id="g37"
     transform="matrix(0.30612245,0,0,0.30612245,-16.406327,0)" /><g
     id="g39"
     transform="matrix(0.30612245,0,0,0.30612245,-16.406327,0)" /><g
     id="g41"
     transform="matrix(0.30612245,0,0,0.30612245,-16.406327,0)" /><g
     id="g43"
     transform="matrix(0.30612245,0,0,0.30612245,-16.406327,0)" /><g
     id="g45"
     transform="matrix(0.30612245,0,0,0.30612245,-16.406327,0)" /></svg>